<svg xmlns="http://www.w3.org/2000/svg" xmlns:xlink="http://www.w3.org/1999/xlink" id="Capa_1" x="0px" y="0px" viewBox="0 0 512.1 512.1" style="enable-background:new 0 0 512.1 512.1;" xml:space="preserve">
<style type="text/css">
	.st0{stroke:#000000;stroke-width:5;stroke-miterlimit:10;}
</style>
<g>
	<g>
		<path class="st0" d="M498.6,395l-19.9-13.3c44.9-78.9,44.4-175.7-1.3-254.1S347.8,1,257.1,1.1c-4.7,0-8.5,3.8-8.5,8.5    s3.8,8.5,8.5,8.5c84.5-0.1,162.6,44.7,205.3,117.6c42.7,72.9,43.5,162.9,2.1,236.6L395,325.9c-13.2-8.7-30.8-5.8-40.5,6.6    l-30.2,38.8c-3.9,5.1-10.9,6.6-16.5,3.5l-5.7-3.2c-19-10.4-42.7-23.3-90.5-71s-60.7-71.4-71-90.5l-3.1-5.7    c-3.2-5.6-1.7-12.7,3.4-16.6l38.8-30.2c12.4-9.7,15.3-27.4,6.6-40.5L117,13.5C108.1,0.1,90.3-4,76.5,4.3l-43.3,26    c-13.6,8-23.6,21-27.9,36.2c-15.6,56.9-3.9,155,140.7,299.6c63,63,117.1,100.7,162.9,122c-70.5,15.9-144.3-1.1-200.7-46.3    C51.8,396.7,19,328.3,19.2,256.1c0-4.7-3.8-8.5-8.5-8.5s-8.5,3.8-8.5,8.5c0.1,140.7,114.2,254.8,254.9,255    c26.4,0,52.6-4.1,77.7-12.2c22.6,8.5,46.6,12.9,70.7,13.3c13.5,0.1,27-1.7,40.1-5.2c15.2-4.3,28.2-14.3,36.2-27.9l26.1-43.3    C516.1,421.8,512,404,498.6,395z M493.1,426.8l-26,43.3c-5.7,9.8-15.1,17.1-26.1,20.2c-24.8,6.8-58.4,7.7-101.6-7.9    c-0.7-0.4-1.4-0.7-2.2-0.9C289.4,463.9,230.1,426.1,158,354C19.2,215.3,7.3,123.6,21.7,71.1c3.1-11,10.4-20.3,20.2-26.1l43.3-26    c6-3.6,13.7-1.9,17.6,4l37.5,56.4l31.5,47.3c3.8,5.7,2.5,13.4-2.9,17.6l-38.8,30.2c-11.8,9-15.2,25.4-7.9,38.3l3.1,5.6    c10.9,20,24.5,44.9,74,94.4c49.5,49.5,74.4,63.1,94.4,74l5.6,3.1c13,7.3,29.3,3.9,38.3-7.9l30.2-38.8c4.2-5.4,11.9-6.6,17.6-2.9    l103.6,69.1C494.9,413.1,496.7,420.9,493.1,426.8z"></path>
	</g>
</g>
</svg>